<?xml version="1.0" encoding="UTF-8"?>
<svg xmlns="http://www.w3.org/2000/svg" viewBox="0 0 320.13 357.63">
  <defs>
    <style>
      .cls-1 { fill: #fff; }
      .cls-2 { fill: #2740fc; }
      .cls-3 { fill: #66bdff; }
      .cls-5 { fill: #2886f9; }
    </style>
  </defs>
  <g>
    <path class="cls-2" d="M320.13,220.21c0,15.04-6.85,28.94-18.12,36.93l-141.97,100.49L0,244.33l51.23-36.28,108.8,77.02,142.81-101.14c10.37,7.77,17.29,21.02,17.29,36.28Z"/>
    <path class="cls-5" d="M320.11,219.58c-.29-20.76-21.54-32.63-37.2-21.53l-122.88,87.01-108.8-77.02-36.95-26.21c-.06-.06-.19-.14-.26-.22C5.25,175.3,0,164.35,0,152.69v-.55c.31-23.05,23.84-36.19,41.18-23.91l61.34,43.47,8.23,5.83h98.61l8.23-5.83,51.23-36.28,14.77,10.45c22.58,15.97,36.33,43.76,36.51,73.72Z"/>
    <path class="cls-3" d="M320.13,99.06l-38.35,27.22-12.94,9.14-51.23,36.28-8.26,5.83h-98.56l-8.26-5.83-61.35-43.48C23.82,115.99.32,129.08,0,152.12v-4.6C0,117.34,13.77,89.28,36.51,73.22L122.83,12.03c22.73-16.05,51.68-16.05,74.41,0l84.53,59.9,38.35,27.13Z"/>
    <polygon class="cls-1" points="110.79 177.53 160.1 123.54 209.34 177.53 110.79 177.53"/>
  </g>
</svg>
